<?xml version="1.0" standalone="no"?>
<!DOCTYPE svg PUBLIC "-//W3C//DTD SVG 20010904//EN"
 "http://www.w3.org/TR/2001/REC-SVG-20010904/DTD/svg10.dtd">
<svg version="1.0" xmlns="http://www.w3.org/2000/svg"
 width="1352.000000pt" height="1352.000000pt" viewBox="0 0 1352.000000 1352.000000"
 preserveAspectRatio="xMidYMid meet">
<metadata>
Created by potrace 1.11, written by Peter Selinger 2001-2013
</metadata>
<g transform="translate(0.000000,1352.000000) scale(0.100000,-0.100000)"
fill="#000000" stroke="none">
<path d="M34 10203 c13 -27 492 -947 1065 -2046 l1041 -1998 0 -1445 0 -1444
625 0 625 0 2 240 3 239 125 -239 125 -240 711 0 c557 0 714 3 721 12 6 7 252
533 548 1168 295 635 547 1174 559 1197 l21 43 270 -270 c148 -149 277 -270
285 -270 8 0 136 121 285 269 l270 270 554 -1192 c304 -656 560 -1202 568
-1214 l13 -23 713 0 712 0 120 230 120 230 3 -225 2 -225 625 0 625 0 0 1430
0 1429 1065 2044 c585 1124 1067 2051 1071 2060 6 16 -44 17 -703 17 l-710 0
-359 -689 -359 -690 -3 690 -2 689 -638 0 -637 0 -1199 -1197 c-659 -659
-1200 -1193 -1203 -1188 -2 6 -57 123 -121 260 l-117 250 -696 3 -696 2 -71
-152 c-39 -84 -94 -202 -122 -263 l-51 -109 -1197 1197 -1197 1197 -642 0
-643 0 -2 -675 -3 -675 -350 673 -350 672 -713 3 -712 2 24 -47z m4685 -3027
l534 -534 -453 -974 c-249 -535 -455 -976 -459 -981 -4 -4 -219 401 -479 899
l-472 905 0 1001 0 1000 398 -390 c218 -215 637 -631 931 -926z m4934 -1610
c-257 -493 -470 -893 -474 -889 -11 13 -901 1926 -906 1949 -4 16 180 204 919
939 l923 918 3 -1010 2 -1010 -467 -897z"/>
</g>
</svg>
